<?xml version="1.0" encoding="UTF-8"?> <svg xmlns="http://www.w3.org/2000/svg" id="uuid-82d695bf-53de-4d99-ab69-611242e0e6de" viewBox="0 0 1500 246.18"><path d="M354.82,128.76c1.75-1.53,2.63-3.47,2.63-5.81-.15-8.34-1.68-15.8-4.61-22.39-2.93-6.58-6.8-12.29-11.63-17.12-4.83-4.83-10.39-8.48-16.68-10.97-6.3-2.48-12.8-3.73-19.53-3.73-9.08,0-17.67,2.38-25.79,7.14-8.12,4.76-14.7,11.63-19.76,20.63-5.05,9-7.57,19.87-7.57,32.6,0,11.41,2.41,21.48,7.25,30.17,4.83,8.71,11.63,15.55,20.41,20.53,8.78,4.97,19.09,7.46,30.95,7.46,7.9,0,15.32-1.68,22.28-5.05,6.95-3.36,12.55-7.31,16.79-11.86,2.34-2.05,3.51-4.31,3.51-6.8,0-2.05-.74-3.81-2.2-5.27-1.47-1.46-3.22-2.2-5.27-2.2-1.91,0-3.81,.66-5.71,1.98-1.9,2.05-4.21,4.06-6.91,6.03-2.71,1.98-5.97,3.62-9.77,4.95-3.81,1.31-8.26,1.97-13.38,1.97-8.2,0-15.37-1.86-21.51-5.6-6.14-3.73-10.94-8.81-14.38-15.25-2.99-5.59-4.67-11.96-5.07-19.09h79.8c2.34,0,4.4-.77,6.15-2.31m-74.52-33.69c3.44-3.37,7.31-5.85,11.64-7.47,4.32-1.61,8.67-2.41,13.06-2.41,5.41,0,10.57,1.17,15.47,3.51,4.9,2.34,9.07,5.67,12.51,9.99,3.43,4.32,5.38,9.47,5.81,15.47v1.76h-68.95c.53-2.75,1.2-5.34,2.12-7.68,2.13-5.41,4.9-9.8,8.34-13.17" style="fill:#040305;"></path><path d="M491.56,127.99c0,11.42-2.52,21.58-7.57,30.51-5.05,8.93-11.85,15.95-20.41,21.07-8.56,5.12-18.19,7.68-28.87,7.68s-20.34-2.56-28.97-7.68c-8.63-5.12-15.48-12.15-20.53-21.07-5.05-8.93-7.57-19.09-7.57-30.51s2.52-21.58,7.57-30.51c5.05-8.92,11.89-15.95,20.53-21.07,8.63-5.12,18.29-7.68,28.97-7.68s20.31,2.56,28.87,7.68c8.56,5.12,15.36,12.15,20.41,21.07,5.05,8.93,7.57,19.09,7.57,30.51m-17.78,0c0-8.49-1.72-15.91-5.16-22.28-3.44-6.36-8.12-11.41-14.05-15.14-5.93-3.73-12.55-5.6-19.87-5.6s-14.16,1.86-20.08,5.6c-5.92,3.73-10.65,8.78-14.16,15.14-3.51,6.37-5.27,13.79-5.27,22.28s1.75,15.73,5.27,22.17c3.51,6.44,8.23,11.53,14.16,15.26,5.92,3.73,12.62,5.6,20.08,5.6s13.94-1.87,19.87-5.6c5.92-3.73,10.61-8.82,14.05-15.26,3.44-6.44,5.16-13.83,5.16-22.17" style="fill:#040305;"></path><path d="M511.31,167.06c-1.18-1.9-1.72-3.92-1.65-6.04,.07-2.12,1.29-3.98,3.63-5.59,1.61-1.03,3.4-1.46,5.38-1.32,1.97,.15,3.76,1.1,5.38,2.86,4.09,4.83,8.78,8.67,14.05,11.52,5.27,2.86,11.7,4.28,19.31,4.28,3.37-.14,6.84-.73,10.42-1.75,3.59-1.02,6.59-2.81,9-5.38,2.42-2.56,3.62-5.96,3.62-10.2s-1.24-7.36-3.73-9.77c-2.49-2.41-5.75-4.39-9.77-5.92-4.02-1.54-8.31-2.89-12.84-4.06-4.83-1.31-9.58-2.78-14.27-4.39-4.68-1.61-8.89-3.7-12.62-6.25-3.73-2.56-6.73-5.78-9-9.66-2.26-3.87-3.4-8.67-3.4-14.38,0-6.58,1.8-12.29,5.38-17.12,3.58-4.83,8.37-8.56,14.38-11.19,6-2.64,12.66-3.95,19.97-3.95,4.1,0,8.38,.47,12.85,1.42,4.46,.96,8.81,2.56,13.05,4.84,4.24,2.26,7.98,5.38,11.2,9.33,1.31,1.46,2.05,3.29,2.19,5.49,.15,2.19-.8,4.17-2.85,5.92-1.61,1.18-3.4,1.72-5.38,1.64-1.97-.07-3.62-.77-4.94-2.08-3.22-3.81-7.13-6.69-11.75-8.67-4.6-1.98-9.69-2.97-15.25-2.97-3.37,0-6.73,.56-10.09,1.65-3.37,1.1-6.19,2.82-8.45,5.16-2.27,2.34-3.4,5.64-3.4,9.88,.15,3.95,1.46,7.17,3.95,9.66,2.49,2.49,5.85,4.5,10.1,6.04,4.24,1.53,8.92,3.03,14.05,4.5,4.68,1.17,9.17,2.52,13.49,4.06,4.32,1.53,8.23,3.54,11.75,6.03s6.29,5.68,8.34,9.55c2.05,3.88,3.08,8.74,3.08,14.59,0,6.73-1.91,12.55-5.71,17.45-3.81,4.9-8.81,8.63-15.03,11.2-6.22,2.56-12.91,3.83-20.08,3.83-8.05,0-16.03-1.5-23.93-4.5-7.9-2.99-14.7-8.23-20.41-15.69" style="fill:#040305;"></path><path d="M672.2,68.73c7.61,0,14.41,.8,20.42,2.42,6,1.61,10.75,3.81,14.27,6.58,3.51,2.78,5.27,5.92,5.27,9.44,0,2.05-.66,3.95-1.97,5.7-1.32,1.76-3.15,2.64-5.49,2.64-1.9,0-3.48-.4-4.72-1.21-1.24-.8-2.41-1.76-3.51-2.86-1.1-1.1-2.6-2.15-4.49-3.18-1.76-.88-4.32-1.65-7.68-2.31-3.37-.66-6.73-.99-10.09-.99-8.05,0-15.11,1.9-21.18,5.7-6.08,3.81-10.87,8.93-14.38,15.37-3.51,6.44-5.27,13.75-5.27,21.94s1.67,15.51,5.04,21.95c3.37,6.44,8.05,11.56,14.05,15.37,6,3.81,12.95,5.7,20.85,5.7,5.12,0,9.18-.44,12.18-1.31,2.99-.88,5.6-1.91,7.79-3.08,2.48-1.46,4.42-2.93,5.81-4.39,1.39-1.46,3.32-2.2,5.81-2.2s4.43,.81,5.82,2.42c1.39,1.61,2.08,3.59,2.08,5.92,0,2.78-1.83,5.64-5.49,8.56-3.66,2.93-8.63,5.38-14.92,7.36-6.3,1.97-13.32,2.96-21.07,2.96-11.12,0-20.85-2.59-29.2-7.79-8.34-5.19-14.81-12.29-19.42-21.29-4.61-9-6.92-19.06-6.92-30.18s2.38-21.15,7.14-30.07c4.76-8.92,11.37-16.02,19.87-21.29,8.48-5.27,18.28-7.9,29.41-7.9" style="fill:#040305;"></path><path d="M91.33,78.23c-9.61-6.22-20.74-9.5-32.18-9.5s-22.59,3.29-32.19,9.51c-1.96,1.27-3.23,3.35-3.48,5.68-.26,2.4,.58,4.73,2.27,6.44l3.22,3.21c1.53,1.53,3.53,2.32,5.54,2.32,1.4,0,2.81-.38,4.08-1.15,6.18-3.82,13.29-5.84,20.55-5.84s14.37,2.02,20.55,5.83c3.08,1.91,7.03,1.43,9.61-1.15l3.22-3.22c1.69-1.69,2.52-4.04,2.27-6.44-.26-2.34-1.52-4.4-3.48-5.68" style="fill:#008691;"></path><path d="M50.04,166.71c-17.95-4.24-30.48-20.09-30.48-38.52,0-7.31,2.03-14.47,5.87-20.69,1.83-2.96,1.37-6.76-1.12-9.25l-3.21-3.22c-1.64-1.63-3.89-2.43-6.19-2.18-2.25,.24-4.24,1.45-5.46,3.34C3.27,105.73,0,116.8,0,128.18c0,27.66,19.63,51.97,46.66,57.81,.52,.11,1.04,.16,1.56,.16,1.67,0,3.3-.57,4.65-1.66,1.8-1.45,2.84-3.62,2.84-5.92v-4.49c0-3.5-2.39-6.6-5.67-7.37" style="fill:#ff5c80;"></path><path d="M157.9,69.03c-32.61,0-59.15,26.54-59.15,59.15l.03,.26-.04,.29c-.26,18.55-13.65,34.65-31.85,38.27-2.48,.5-4.28,2.69-4.28,5.22v9.03c0,1.58,.69,3.08,1.9,4.11,1.18,1,2.72,1.43,4.24,1.18,28.72-4.7,49.56-29.24,49.56-58.36,0-21.83,17.76-39.59,39.6-39.59s39.6,17.76,39.6,39.59-17.76,39.6-39.6,39.6c-5.39,0-9.78,4.38-9.78,9.77s4.39,9.78,9.78,9.78c32.61,0,59.15-26.54,59.15-59.15s-26.54-59.15-59.15-59.15" style="fill:#008691;"></path><rect x="784.22" y="9.57" width="2.53" height="236.61" style="fill:#040305;"></rect><g><path d="M909.18,171.27c6.97,0,13.06-2.12,18.28-6.34,5.21-4.22,8.1-9.51,8.67-15.85h18.49c-.36,6.56-2.61,12.78-6.76,18.7-4.16,5.91-9.71,10.64-16.64,14.16-6.94,3.52-14.28,5.28-22.03,5.28-15.57,0-27.95-5.19-37.14-15.58-9.19-10.39-13.79-24.6-13.79-42.64v-3.27c0-11.13,2.04-21.03,6.13-29.69,4.08-8.66,9.94-15.39,17.59-20.18,7.64-4.79,16.67-7.18,27.1-7.18,12.82,0,23.47,3.84,31.96,11.51,8.49,7.68,13.02,17.64,13.58,29.9h-18.49c-.56-7.4-3.37-13.47-8.4-18.23-5.04-4.75-11.25-7.13-18.65-7.13-9.93,0-17.63,3.58-23.08,10.72-5.46,7.15-8.19,17.49-8.19,31.01v3.7c0,13.18,2.71,23.32,8.13,30.43,5.43,7.11,13.18,10.67,23.25,10.67Z"></path><path d="M1047.17,185.11c-1.13-2.25-2.05-6.27-2.75-12.05-9.09,9.44-19.94,14.16-32.54,14.16-11.27,0-20.52-3.18-27.73-9.56-7.23-6.38-10.84-14.46-10.84-24.25,0-11.91,4.53-21.15,13.58-27.74,9.05-6.58,21.78-9.88,38.19-9.88h19.02v-8.98c0-6.83-2.04-12.27-6.13-16.32-4.09-4.05-10.11-6.08-18.07-6.08-6.97,0-12.82,1.76-17.53,5.28-4.72,3.52-7.08,7.79-7.08,12.79h-19.65c0-5.71,2.03-11.22,6.08-16.54,4.05-5.32,9.54-9.53,16.49-12.63,6.93-3.1,14.56-4.65,22.87-4.65,13.18,0,23.49,3.29,30.96,9.88,7.47,6.59,11.34,15.66,11.62,27.21v52.62c0,10.49,1.34,18.84,4.02,25.04v1.69h-20.49Zm-32.44-14.89c6.13,0,11.93-1.59,17.43-4.76,5.5-3.17,9.47-7.29,11.94-12.36v-23.45h-15.32c-23.95,0-35.92,7-35.92,21.02,0,6.13,2.04,10.92,6.13,14.37,4.08,3.45,9.33,5.18,15.74,5.18Z"></path><path d="M1112.78,70.79l.63,14.37c8.74-10.99,20.14-16.48,34.23-16.48,24.16,0,36.35,13.63,36.56,40.89v75.54h-19.55V109.46c-.07-8.24-1.95-14.33-5.65-18.28-3.7-3.94-9.46-5.92-17.28-5.92-6.34,0-11.91,1.69-16.69,5.07-4.79,3.38-8.52,7.82-11.2,13.31v81.46h-19.55V70.79h18.49Z"></path><path d="M1259.54,171.27c6.97,0,13.06-2.12,18.28-6.34,5.21-4.22,8.1-9.51,8.67-15.85h18.49c-.36,6.56-2.61,12.78-6.76,18.7-4.16,5.91-9.71,10.64-16.64,14.16-6.94,3.52-14.28,5.28-22.03,5.28-15.57,0-27.95-5.19-37.14-15.58-9.19-10.39-13.79-24.6-13.79-42.64v-3.27c0-11.13,2.04-21.03,6.13-29.69,4.08-8.66,9.94-15.39,17.59-20.18,7.64-4.79,16.67-7.18,27.1-7.18,12.82,0,23.47,3.84,31.96,11.51,8.49,7.68,13.02,17.64,13.58,29.9h-18.49c-.56-7.4-3.37-13.47-8.4-18.23-5.04-4.75-11.25-7.13-18.65-7.13-9.93,0-17.63,3.58-23.08,10.72-5.46,7.15-8.19,17.49-8.19,31.01v3.7c0,13.18,2.71,23.32,8.13,30.43,5.43,7.11,13.18,10.67,23.25,10.67Z"></path><path d="M1374.38,187.22c-15.49,0-28.11-5.09-37.83-15.27-9.72-10.18-14.58-23.79-14.58-40.83v-3.6c0-11.34,2.17-21.46,6.5-30.37,4.34-8.91,10.39-15.88,18.18-20.92,7.78-5.04,16.22-7.55,25.3-7.55,14.87,0,26.41,4.89,34.65,14.68,8.25,9.79,12.36,23.81,12.36,42.05v8.14h-77.44c.28,11.27,3.57,20.37,9.87,27.31,6.31,6.93,14.32,10.41,24.04,10.41,6.91,0,12.75-1.41,17.54-4.23,4.79-2.82,8.98-6.55,12.57-11.2l11.94,9.3c-9.58,14.72-23.95,22.08-43.11,22.08Zm-2.43-102.48c-7.89,0-14.51,2.87-19.86,8.61-5.36,5.74-8.67,13.79-9.94,24.14h57.27v-1.48c-.56-9.93-3.24-17.63-8.02-23.09-4.79-5.46-11.27-8.19-19.45-8.19Z"></path><path d="M1496.83,88.32c-2.96-.49-6.16-.74-9.62-.74-12.82,0-21.52,5.46-26.09,16.38v81.14h-19.55V70.79h19.02l.31,13.21c6.41-10.21,15.49-15.32,27.26-15.32,3.81,0,6.69,.49,8.67,1.48v18.17Z"></path></g></svg> 