<?xml version="1.0" encoding="UTF-8" standalone="no"?>
<!-- Created with Inkscape (http://www.inkscape.org/) -->

<svg
   version="1.1"
   id="svg2"
   xml:space="preserve"
   width="1513.6715"
   height="905.47437"
   viewBox="0 0 1513.6715 905.47437"
   sodipodi:docname="logo.svg"
   inkscape:version="1.1.2 (b8e25be833, 2022-02-05)"
   xmlns:inkscape="http://www.inkscape.org/namespaces/inkscape"
   xmlns:sodipodi="http://sodipodi.sourceforge.net/DTD/sodipodi-0.dtd"
   xmlns="http://www.w3.org/2000/svg"
   xmlns:svg="http://www.w3.org/2000/svg"><defs
     id="defs6"><clipPath
       clipPathUnits="userSpaceOnUse"
       id="clipPath16"><path
         d="M 0,1080 H 1920 V 0 H 0 Z"
         id="path14" /></clipPath></defs><sodipodi:namedview
     id="namedview4"
     pagecolor="#ffffff"
     bordercolor="#666666"
     borderopacity="1.0"
     inkscape:pageshadow="2"
     inkscape:pageopacity="0.0"
     inkscape:pagecheckerboard="0"
     showgrid="false"
     inkscape:zoom="0.46601562"
     inkscape:cx="762.84996"
     inkscape:cy="452.77452"
     inkscape:window-width="1920"
     inkscape:window-height="1017"
     inkscape:window-x="-8"
     inkscape:window-y="-8"
     inkscape:window-maximized="1"
     inkscape:current-layer="g8"
     fit-margin-top="0"
     fit-margin-left="0"
     fit-margin-right="0"
     fit-margin-bottom="0" /><g
     id="g8"
     inkscape:groupmode="layer"
     inkscape:label="INTERCEPT_logo-final"
     transform="matrix(1.3333333,0,0,-1.3333333,-516.54292,1172.7372)"><g
       id="g10"><g
         id="g12"
         clip-path="url(#clipPath16)"><g
           id="g18"
           transform="translate(738.126,462.6487)"><path
             d="m 0,0 v 92.246 c 0,4.73 2.661,7.391 7.392,7.391 h 2.365 c 4.73,0 7.391,-2.661 7.391,-7.391 L 17.148,0 c 0,-4.731 -2.661,-7.392 -7.391,-7.392 H 7.392 C 2.661,-7.392 0,-4.731 0,0"
             style="fill:#251f47;fill-opacity:1;fill-rule:nonzero;stroke:none"
             id="path20" /></g><g
           id="g22"
           transform="translate(777.8922,462.6487)"><path
             d="m 0,0 v 92.246 c 0,4.73 2.661,7.391 7.392,7.391 h 4.139 c 3.991,0 6.8,-1.33 9.017,-4.73 L 72.437,18.922 v 73.324 c 0,4.73 2.661,7.391 7.391,7.391 h 2.365 c 4.731,0 7.392,-2.661 7.392,-7.391 V 0 c 0,-4.731 -2.661,-7.392 -7.392,-7.392 H 78.35 c -3.992,0 -6.801,1.331 -9.018,4.731 L 17.148,73.767 V 0 c 0,-4.731 -2.661,-7.392 -7.391,-7.392 H 7.392 C 2.661,-7.392 0,-4.731 0,0"
             style="fill:#251f47;fill-opacity:1;fill-rule:nonzero;stroke:none"
             id="path24" /></g><g
           id="g26"
           transform="translate(912.2687,462.6487)"><path
             d="m 0,0 v 84.115 h -21.583 c -4.731,0 -7.391,2.661 -7.391,7.392 v 0.739 c 0,4.73 2.66,7.391 7.391,7.391 h 60.167 c 4.73,0 7.391,-2.661 7.391,-7.391 v -0.739 c 0,-4.731 -2.661,-7.392 -7.391,-7.392 H 17.149 V 0 c 0,-4.731 -2.661,-7.392 -7.392,-7.392 H 7.392 C 2.661,-7.392 0,-4.731 0,0"
             style="fill:#251f47;fill-opacity:1;fill-rule:nonzero;stroke:none"
             id="path28" /></g><g
           id="g30"
           transform="translate(981.0903,462.6487)"><path
             d="m 0,0 v 92.246 c 0,4.73 2.661,7.391 7.392,7.391 h 54.992 c 4.731,0 7.392,-2.661 7.392,-7.391 v -0.739 c 0,-4.731 -2.661,-7.392 -7.392,-7.392 H 17.148 V 54.254 h 42.575 c 4.731,0 7.392,-2.661 7.392,-7.392 v -0.148 c 0,-4.73 -2.661,-7.243 -7.392,-7.243 H 17.148 V 8.13 h 45.236 c 4.731,0 7.392,-2.66 7.392,-7.391 V 0 c 0,-4.731 -2.661,-7.392 -7.392,-7.392 H 7.392 C 2.661,-7.392 0,-4.731 0,0"
             style="fill:#251f47;fill-opacity:1;fill-rule:nonzero;stroke:none"
             id="path32" /></g><g
           id="g34"
           transform="translate(1125.4327,526.2111)"><path
             d="m 0,0 c 0,17.149 -10.2,21.288 -30.453,21.288 h -15.522 v -42.132 h 15.522 C -10.2,-20.844 0,-17.148 0,0 M 13.009,-61.941 C 17,-67.854 15.67,-70.958 8.278,-70.958 H 5.026 c -3.991,0 -6.652,1.626 -8.87,4.878 l -20.403,31.034 c -1.947,-0.092 -3.967,-0.136 -6.055,-0.136 h -15.523 v -28.384 c 0,-4.73 -2.661,-7.391 -7.391,-7.391 h -2.513 c -4.731,0 -7.392,2.661 -7.392,7.391 v 92.247 c 0,4.73 2.661,7.391 7.392,7.391 h 25.722 c 33.262,0 47.306,-9.609 47.306,-35.331 0,-17.907 -7.899,-28.598 -24.238,-33.218 z"
             style="fill:#251f47;fill-opacity:1;fill-rule:nonzero;stroke:none"
             id="path36" /></g><g
           id="g38"
           transform="translate(1156.9282,508.4761)"><path
             d="m 0,0 c 0,37.992 24.836,55.141 50.41,55.141 17.444,0 36.514,-7.688 44.941,-28.975 1.921,-4.879 -0.592,-8.279 -5.47,-9.166 l -2.365,-0.443 c -4.583,-0.887 -6.8,1.035 -9.018,5.322 C 72.437,33.409 62.828,39.323 50.41,39.323 30.749,39.323 17.592,24.244 17.592,0 c 0,-24.392 12.861,-39.027 32.818,-39.027 12.714,0 22.47,6.061 28.383,18.183 2.07,4.287 4.583,6.209 9.018,5.322 l 2.366,-0.444 c 4.878,-0.887 7.095,-5.174 4.434,-11.531 C 86.037,-47.602 67.411,-54.993 50.41,-54.993 24.836,-54.993 0,-39.027 0,0"
             style="fill:#251f47;fill-opacity:1;fill-rule:nonzero;stroke:none"
             id="path40" /></g><g
           id="g42"
           transform="translate(1272.3843,462.6487)"><path
             d="m 0,0 v 92.246 c 0,4.73 2.661,7.391 7.392,7.391 h 54.992 c 4.731,0 7.392,-2.661 7.392,-7.391 v -0.739 c 0,-4.731 -2.661,-7.392 -7.392,-7.392 H 17.148 V 54.254 h 42.575 c 4.731,0 7.392,-2.661 7.392,-7.392 v -0.148 c 0,-4.73 -2.661,-7.243 -7.392,-7.243 H 17.148 V 8.13 h 45.236 c 4.731,0 7.392,-2.66 7.392,-7.391 V 0 c 0,-4.731 -2.661,-7.392 -7.392,-7.392 H 7.392 C 2.661,-7.392 0,-4.731 0,0"
             style="fill:#251f47;fill-opacity:1;fill-rule:nonzero;stroke:none"
             id="path44" /></g><g
           id="g46"
           transform="translate(1392.2742,502.5628)"><path
             d="M 0,0 C 20.253,0 30.305,4.731 30.305,22.323 30.305,39.766 20.253,44.497 0,44.497 H -14.34 V 0 Z m -31.488,-39.914 v 92.246 c 0,4.73 2.661,7.391 7.392,7.391 h 21.583 c 35.036,0 50.262,-9.608 50.262,-37.696 0,-28.088 -15.226,-37.697 -50.114,-37.697 H -14.34 v -24.244 c 0,-4.731 -2.661,-7.392 -7.391,-7.392 h -2.365 c -4.731,0 -7.392,2.661 -7.392,7.392"
             style="fill:#251f47;fill-opacity:1;fill-rule:nonzero;stroke:none"
             id="path48" /></g><g
           id="g50"
           transform="translate(1476.6859,462.6487)"><path
             d="m 0,0 v 84.115 h -21.583 c -4.731,0 -7.391,2.661 -7.391,7.392 v 0.739 c 0,4.73 2.66,7.391 7.391,7.391 h 60.167 c 4.73,0 7.391,-2.661 7.391,-7.391 v -0.739 c 0,-4.731 -2.661,-7.392 -7.391,-7.392 H 17.149 V 0 c 0,-4.731 -2.661,-7.392 -7.392,-7.392 H 7.391 C 2.661,-7.392 0,-4.731 0,0"
             style="fill:#251f47;fill-opacity:1;fill-rule:nonzero;stroke:none"
             id="path52" /></g><g
           id="g54"
           transform="translate(841.3386,877.5529)"><path
             d="m 0,0 0.5,-69.5 c 0,0 -90.051,40.133 -137,-36 -37,-60 28,-118.5 28,-118.5 h 52.714"
             style="fill:none;stroke:#5580c0;stroke-width:4;stroke-linecap:round;stroke-linejoin:round;stroke-miterlimit:10;stroke-dasharray:none;stroke-opacity:1"
             id="path56" /></g><g
           id="g58"
           transform="translate(785.6353,653.5529)"><path
             d="m 0,0 h -177.797 c -16,0 -42.851,-3.097 -42.851,-31.298 v -102.544"
             style="fill:none;stroke:#5580c0;stroke-width:4;stroke-linecap:round;stroke-linejoin:miter;stroke-miterlimit:10;stroke-dasharray:none;stroke-opacity:1"
             id="path60" /></g><g
           id="g62"
           transform="translate(905.8386,857.0529)"><path
             d="M 0,0 V -124 H -96.902"
             style="fill:none;stroke:#5580c0;stroke-width:4;stroke-linecap:round;stroke-linejoin:round;stroke-miterlimit:10;stroke-dasharray:none;stroke-opacity:1"
             id="path64" /></g><g
           id="g66"
           transform="translate(812.8386,733.0529)"><path
             d="M 0,0 H 115"
             style="fill:none;stroke:#5580c0;stroke-width:4;stroke-linecap:round;stroke-linejoin:round;stroke-miterlimit:10;stroke-dasharray:none;stroke-opacity:1"
             id="path68" /></g><g
           id="g70"
           transform="translate(815.8386,325.0529)"><path
             d="m 0,0 c 0,0 -182,1 -229,1 -24,0 -21,24 -21,24 v 47"
             style="fill:none;stroke:#5580c0;stroke-width:4;stroke-linecap:round;stroke-linejoin:miter;stroke-miterlimit:10;stroke-dasharray:none;stroke-opacity:1"
             id="path72" /></g><g
           id="g74"
           transform="translate(712.8386,206.0529)"><path
             d="m 0,0 v 87 c 0,16.79 -3.667,32.933 21.667,32.933 C 47,119.933 103.5,119 103.5,119"
             style="fill:none;stroke:#5580c0;stroke-width:4;stroke-linecap:round;stroke-linejoin:miter;stroke-miterlimit:10;stroke-dasharray:none;stroke-opacity:1"
             id="path76" /></g><g
           id="g78"
           transform="translate(829.1732,202.4471)"><path
             d="m 0,0 v 49.361 c 0,0 64.665,-3.755 93.665,30.245 29,34 24,92 -8,111"
             style="fill:none;stroke:#5580c0;stroke-width:4;stroke-linecap:round;stroke-linejoin:round;stroke-miterlimit:10;stroke-dasharray:none;stroke-opacity:1"
             id="path80" /></g><g
           id="g82"
           transform="translate(514.5277,842.5529)"><path
             d="M 0,0 V -578"
             style="fill:none;stroke:#9bcda6;stroke-width:19.863;stroke-linecap:round;stroke-linejoin:miter;stroke-miterlimit:10;stroke-dasharray:none;stroke-opacity:1"
             id="path84" /></g><g
           id="g86"
           transform="translate(975.3387,418.4876)"><path
             d="M 0,0 H -578"
             style="fill:none;stroke:#9bcda6;stroke-width:19.863;stroke-linecap:round;stroke-linejoin:miter;stroke-miterlimit:10;stroke-dasharray:none;stroke-opacity:1"
             id="path88" /></g><g
           id="g90"
           transform="translate(412.2356,450.2676)"><path
             d="M 0,0 C 0,0 304.89,40.718 563.103,360.505"
             style="fill:none;stroke:#251f47;stroke-width:19.863;stroke-linecap:round;stroke-linejoin:miter;stroke-miterlimit:10;stroke-dasharray:none;stroke-opacity:1"
             id="path92" /></g><g
           id="g94"
           transform="translate(944.5518,734.302)"><path
             d="m 0,0 c 0,-20.294 -16.452,-36.746 -36.746,-36.746 -20.294,0 -36.745,16.452 -36.745,36.746 0,20.294 16.451,36.746 36.745,36.746 C -16.452,36.746 0,20.294 0,0"
             style="fill:#9bcda6;fill-opacity:1;fill-rule:nonzero;stroke:none"
             id="path96" /></g><g
           id="g98"
           transform="translate(944.5518,734.302)"><path
             d="m 0,0 c 0,-20.294 -16.452,-36.746 -36.746,-36.746 -20.294,0 -36.745,16.452 -36.745,36.746 0,20.294 16.451,36.746 36.745,36.746 C -16.452,36.746 0,20.294 0,0 Z"
             style="fill:none;stroke:#ffffff;stroke-width:9;stroke-linecap:butt;stroke-linejoin:miter;stroke-miterlimit:10;stroke-dasharray:none;stroke-opacity:1"
             id="path100" /></g></g></g></g></svg>
