<svg xmlns="http://www.w3.org/2000/svg" data-name="Layer 1" viewBox="0 0 100 125" x="0px" y="0px"><title>Artboard 20</title><path d="M50,26.83a2.5,2.5,0,0,0,2.5-2.5V17.79a8.58,8.58,0,1,0-5,0v6.54A2.5,2.5,0,0,0,50,26.83ZM46.42,9.58A3.58,3.58,0,1,1,50,13.17,3.59,3.59,0,0,1,46.42,9.58Z"/><path d="M50,73.17a2.5,2.5,0,0,0-2.5,2.5v6.54a8.58,8.58,0,1,0,5,0V75.67A2.5,2.5,0,0,0,50,73.17Zm3.58,17.25A3.58,3.58,0,1,1,50,86.83,3.59,3.59,0,0,1,53.58,90.42Z"/><path d="M40.58,44.82A6.42,6.42,0,0,0,35,51.18v9.49a6.42,6.42,0,0,0,6.42,6.42H58.59A6.42,6.42,0,0,0,65,60.67V51.18a6.42,6.42,0,0,0-5.58-6.36V40.67a8.77,8.77,0,0,0-8.76-8.76H49.33a8.77,8.77,0,0,0-8.76,8.76ZM60,51.18v9.49a1.42,1.42,0,0,1-1.42,1.42H41.41A1.42,1.42,0,0,1,40,60.67V51.18a1.42,1.42,0,0,1,1.42-1.42H58.59A1.42,1.42,0,0,1,60,51.18ZM49.33,36.91h1.33a3.76,3.76,0,0,1,3.76,3.76v4.09H45.58V40.67A3.76,3.76,0,0,1,49.33,36.91Z"/><path d="M23.29,27.57A8.58,8.58,0,1,0,15,38.38a8.63,8.63,0,0,0,2.24-.3A8.54,8.54,0,0,0,20.91,36l5.58,2.87a2.5,2.5,0,1,0,2.29-4.45l-5.4-2.77A8.54,8.54,0,0,0,23.29,27.57ZM13.21,32.9a3.58,3.58,0,1,1,4.89-1.31A3.59,3.59,0,0,1,13.21,32.9Z"/><path d="M89.29,62.77A8.59,8.59,0,0,0,79.09,64l-5.58-2.87a2.5,2.5,0,0,0-2.29,4.45l5.4,2.77a8.58,8.58,0,1,0,12.67-5.56ZM88.11,72a3.58,3.58,0,1,1-1.31-4.9A3.59,3.59,0,0,1,88.11,72Z"/><path d="M80.71,22.36a8.58,8.58,0,0,0-4.09,9.31l-5.4,2.77a2.5,2.5,0,1,0,2.29,4.45L79.09,36a8.58,8.58,0,1,0,1.62-13.66ZM86.79,32.9A3.58,3.58,0,1,1,88.11,28,3.59,3.59,0,0,1,86.79,32.9Z"/><path d="M19.29,77.64a8.58,8.58,0,0,0,4.09-9.31l5.4-2.77a2.5,2.5,0,1,0-2.29-4.45L20.91,64a8.58,8.58,0,1,0-1.62,13.66ZM11.89,72a3.58,3.58,0,1,1,4.9,1.31A3.59,3.59,0,0,1,11.89,72Z"/><text x="0" y="115" fill="#000000" font-size="5px" font-weight="bold" font-family="'Helvetica Neue', Helvetica, Arial-Unicode, Arial, Sans-serif">Created by Gregor Cresnar</text><text x="0" y="120" fill="#000000" font-size="5px" font-weight="bold" font-family="'Helvetica Neue', Helvetica, Arial-Unicode, Arial, Sans-serif">from the Noun Project</text></svg>