<svg xmlns="http://www.w3.org/2000/svg" xmlns:xlink="http://www.w3.org/1999/xlink" version="1.1" x="0px" y="0px" viewBox="0 0 96 120" enable-background="new 0 0 96 96" xml:space="preserve"><path d="M53.668,84.111c0,4.91-3.979,8.889-8.888,8.889c-4.909,0-8.888-3.979-8.888-8.889c0-4.908,3.979-8.887,8.888-8.887  C49.689,75.225,53.668,79.203,53.668,84.111z"/><path d="M67.9,75.221c-4.908,0-8.896,3.991-8.896,8.891c0,4.908,3.988,8.893,8.896,8.893c4.899,0,8.888-3.984,8.888-8.893  C76.779,79.212,72.788,75.221,67.9,75.221z"/><path d="M89.271,41.016L21.208,31.72l-2.12-5.448c-0.3-0.764-1.04-1.272-1.864-1.272H5c-1.104,0-2,0.896-2,2v6c0,1.1,0.896,2,2,2  s2-0.9,2-2v-4h8.856l2.028,5.22c0.012,0.032,0.024,0.068,0.032,0.1l14.548,37.409c0.3,0.764,1.04,1.271,1.864,1.271h44  c0.828,0,1.576-0.508,1.867-1.288l10.664-28c0.225-0.576,0.164-1.208-0.147-1.732C90.416,41.452,89.884,41.1,89.271,41.016z   M39.004,45h28c1.104,0,2,0.9,2,2s-0.896,2-2,2h-28c-1.104,0-2-0.9-2-2S37.9,45,39.004,45z M75.004,65h-36c-1.104,0-2-0.9-2-2  s0.896-2,2-2h36c1.104,0,2,0.9,2,2S76.107,65,75.004,65z M75.004,57h-36c-1.104,0-2-0.9-2-2s0.896-2,2-2h36c1.104,0,2,0.9,2,2  S76.107,57,75.004,57z"/><path d="M92.252,3.436c-0.859-0.688-2.111-0.552-2.813,0.308L74.84,22l-6.416-6.42c-0.779-0.776-2.052-0.776-2.828,0  c-0.779,0.78-0.779,2.052,0,2.828l8,8c0.377,0.38,0.889,0.584,1.416,0.584c0.036,0,0.08,0,0.108-0.008  c0.571-0.028,1.092-0.296,1.448-0.748l16-20C93.252,5.384,93.116,4.128,92.252,3.436z"/><text x="0" y="111" fill="#000000" font-size="5px" font-weight="bold" font-family="'Helvetica Neue', Helvetica, Arial-Unicode, Arial, Sans-serif">Created by iconsmind.com</text><text x="0" y="116" fill="#000000" font-size="5px" font-weight="bold" font-family="'Helvetica Neue', Helvetica, Arial-Unicode, Arial, Sans-serif">from the Noun Project</text></svg>