<?xml version="1.0" encoding="UTF-8" standalone="no"?>
<svg
   xmlns:dc="http://purl.org/dc/elements/1.1/"
   xmlns:cc="http://creativecommons.org/ns#"
   xmlns:rdf="http://www.w3.org/1999/02/22-rdf-syntax-ns#"
   xmlns:svg="http://www.w3.org/2000/svg"
   xmlns="http://www.w3.org/2000/svg"
   xmlns:sodipodi="http://sodipodi.sourceforge.net/DTD/sodipodi-0.dtd"
   xmlns:inkscape="http://www.inkscape.org/namespaces/inkscape"
   version="1.1"
   x="0px"
   y="0px"
   viewBox="0 0 64 80"
   enable-background="new 0 0 64 64"
   xml:space="preserve"
   id="svg2"
   inkscape:version="0.91 r13725"
   sodipodi:docname="noun_Partner condition_127559_green.svg"><metadata
     id="metadata44"><rdf:RDF><cc:Work
         rdf:about=""><dc:format>image/svg+xml</dc:format><dc:type
           rdf:resource="http://purl.org/dc/dcmitype/StillImage" /></cc:Work></rdf:RDF></metadata><defs
     id="defs42" /><sodipodi:namedview
     pagecolor="#ffffff"
     bordercolor="#666666"
     borderopacity="1"
     objecttolerance="10"
     gridtolerance="10"
     guidetolerance="10"
     inkscape:pageopacity="0"
     inkscape:pageshadow="2"
     inkscape:window-width="1376"
     inkscape:window-height="842"
     id="namedview40"
     showgrid="false"
     inkscape:zoom="2.95"
     inkscape:cx="-13.084746"
     inkscape:cy="40"
     inkscape:window-x="0"
     inkscape:window-y="0"
     inkscape:window-maximized="0"
     inkscape:current-layer="svg2" /><path
     style="fill:#72f6b2;fill-opacity:1"
     inkscape:connector-curvature="0"
     id="path6"
     d="M 21.4,17.4 C 21,17 20.4,17 20,17.4 l -3.9,3.9 -1,-1 c -0.4,-0.4 -1,-0.4 -1.4,0 -0.4,0.4 -0.4,1 0,1.4 l 1.7,1.7 c 0.2,0.2 0.5,0.3 0.7,0.3 0.3,0 0.5,-0.1 0.7,-0.3 l 4.6,-4.6 c 0.4,-0.4 0.4,-1.1 0,-1.4 z" /><path
     style="fill:#72f6b2;fill-opacity:1"
     inkscape:connector-curvature="0"
     id="path8"
     d="m 20,26.4 -3.9,3.9 -1,-1 c -0.4,-0.4 -1,-0.4 -1.4,0 -0.4,0.4 -0.4,1 0,1.4 l 1.7,1.7 c 0.2,0.2 0.5,0.3 0.7,0.3 0.3,0 0.5,-0.1 0.7,-0.3 l 4.6,-4.6 c 0.4,-0.4 0.4,-1 0,-1.4 C 21,26 20.3,26 20,26.4 Z" /><path
     style="fill:#000000"
     inkscape:connector-curvature="0"
     id="path10"
     d="m 39,34 c -0.6,0 -1,0.4 -1,1 0,0.6 0.4,1 1,1 l 2,0 c 0.6,0 1,-0.4 1,-1 0,-0.6 -0.4,-1 -1,-1 l -2,0 z" /><path
     style="fill:#000000"
     inkscape:connector-curvature="0"
     id="path12"
     d="m 45,34 c -0.6,0 -1,0.4 -1,1 0,0.6 0.4,1 1,1 l 6,0 0,14.3 -8.7,3.5 -10,-11 -6.6,3.3 c -1.1,0.5 -2.3,0.6 -3.4,0.2 L 21,45.9 c -0.2,-0.1 -0.3,-0.3 -0.3,-0.4 0,-0.1 0,-0.3 0.2,-0.4 l 8.5,-6.2 c 0.1,0 0.3,-0.1 0.4,-0.2 0,0 0,-0.1 0.1,-0.1 L 33.5,36 35,36 c 0.6,0 1,-0.4 1,-1 0,-0.6 -0.4,-1 -1,-1 L 32.7,34 29.1,36.6 26.4,34 14,34 13,34 0,34 0,52 6,52 C 6.6,52 7,51.6 7,51 7,50.4 6.6,50 6,50 l -4,0 0,-14 10,0 0,14 -2,0 c -0.6,0 -1,0.4 -1,1 0,0.6 0.4,1 1,1 l 2.7,0 13.7,10.8 c 0.7,0.6 1.5,0.9 2.4,0.9 0.5,0 1,-0.1 1.4,-0.3 0.4,-0.2 0.7,-0.5 1,-0.7 l 1.1,1.1 c 0.1,0.1 0.1,0.1 0.2,0.1 0,0 0.1,0.1 0.1,0.1 0.1,0 0.3,0 0.4,0 0.1,0 0.2,0 0.4,-0.1 0,0 0.1,0 0.1,-0.1 0.1,0 0.1,-0.1 0.2,-0.1 l 8.9,-7.9 9.7,-3.9 11.7,0 L 64,34 45,34 Z M 29.3,61.5 c -0.5,0.2 -1.2,0.1 -1.7,-0.3 L 14,50.5 14,36 l 11.6,0 1.8,1.8 -7.7,5.7 c -0.7,0.5 -1.1,1.5 -1,2.4 0.1,0.9 0.8,1.7 1.7,2 l 1.2,0.4 c 1.6,0.5 3.4,0.4 5,-0.4 l 5.3,-2.6 8.8,9.7 -1.3,1 -8.7,-8.7 c -0.4,-0.4 -1,-0.4 -1.4,0 -0.4,0.4 -0.4,1 0,1.4 l 8.6,8.6 -1.7,1.5 -8.5,-8.5 c -0.4,-0.4 -1,-0.4 -1.4,0 -0.4,0.4 -0.4,1 0,1.4 l 8.4,8.4 -1.7,1.5 -8.3,-8.3 c -0.4,-0.4 -1,-0.4 -1.4,0 -0.4,0.4 -0.4,1 0,1.4 l 6.5,6.5 c -0.2,0.1 -0.3,0.2 -0.5,0.3 z M 62,50 l -9,0 0,-14 9,0 0,14 z" /><path
     style="fill:#000000"
     inkscape:connector-curvature="0"
     id="path14"
     d="m 22,11 c 0,-0.6 -0.4,-1 -1,-1 l -1,0 c -0.6,0 -1,0.4 -1,1 0,0.6 0.4,1 1,1 l 1,0 c 0.6,0 1,-0.4 1,-1 z" /><path
     style="fill:#000000"
     inkscape:connector-curvature="0"
     id="path16"
     d="m 24,12 1,0 c 0.6,0 1,-0.4 1,-1 0,-0.6 -0.4,-1 -1,-1 l -1,0 c -0.6,0 -1,0.4 -1,1 0,0.6 0.4,1 1,1 z" /><path
     style="fill:#000000"
     inkscape:connector-curvature="0"
     id="path18"
     d="m 16,12 1,0 c 0.6,0 1,-0.4 1,-1 0,-0.6 -0.4,-1 -1,-1 l -1,0 c -0.6,0 -1,0.4 -1,1 0,0.6 0.4,1 1,1 z" /><path
     style="fill:#72f6b2;fill-opacity:1"
     inkscape:connector-curvature="0"
     id="path20"
     d="m 55,32 c 0.6,0 1,-0.5 1,-1 l 0,-20 c 0,-0.3 -0.1,-0.5 -0.3,-0.7 l -10,-10 C 45.5,0.1 45.3,0 45,0 L 9,0 C 8.4,0 8,0.5 8,1 l 0,31 c 0,0.6 0.4,1 1,1 0.6,0 1,-0.5 1,-1 l 0,-30 34,0 0,9 c 0,0.6 0.4,1 1,1 l 9,0 0,19 c 0,0.6 0.4,1 1,1 z M 46,3.5 52.5,10 46,10 46,3.5 Z" /><path
     style="fill:#000000"
     inkscape:connector-curvature="0"
     id="path22"
     d="M 30,7 C 30,6.4 29.6,6 29,6 L 16,6 c -0.6,0 -1,0.4 -1,1 0,0.6 0.4,1 1,1 l 13,0 c 0.6,0 1,-0.4 1,-1 z" /><path
     style="fill:#000000"
     inkscape:connector-curvature="0"
     id="path24"
     d="m 40,24 c 0.6,0 1,-0.4 1,-1 0,-0.6 -0.4,-1 -1,-1 l -1,0 c -0.6,0 -1,0.4 -1,1 0,0.6 0.4,1 1,1 l 1,0 z" /><path
     style="fill:#000000"
     inkscape:connector-curvature="0"
     id="path26"
     d="m 44,24 c 0.6,0 1,-0.4 1,-1 0,-0.6 -0.4,-1 -1,-1 l -1,0 c -0.6,0 -1,0.4 -1,1 0,0.6 0.4,1 1,1 l 1,0 z" /><path
     style="fill:#000000"
     inkscape:connector-curvature="0"
     id="path28"
     d="m 36,24 c 0.6,0 1,-0.4 1,-1 0,-0.6 -0.4,-1 -1,-1 l -1,0 c -0.6,0 -1,0.4 -1,1 0,0.6 0.4,1 1,1 l 1,0 z" /><path
     style="fill:#000000"
     inkscape:connector-curvature="0"
     id="path30"
     d="m 48,18 -21,0 c -0.6,0 -1,0.4 -1,1 0,0.6 0.4,1 1,1 l 21,0 c 0.6,0 1,-0.4 1,-1 0,-0.6 -0.4,-1 -1,-1 z" /><path
     style="fill:#000000"
     inkscape:connector-curvature="0"
     id="path32"
     d="m 27,24 5,0 c 0.6,0 1,-0.4 1,-1 0,-0.6 -0.4,-1 -1,-1 l -5,0 c -0.6,0 -1,0.4 -1,1 0,0.6 0.4,1 1,1 z" /><path
     style="fill:#000000"
     inkscape:connector-curvature="0"
     id="path34"
     d="m 49,29 c 0,-0.6 -0.4,-1 -1,-1 l -21,0 c -0.6,0 -1,0.4 -1,1 0,0.6 0.4,1 1,1 l 21,0 c 0.6,0 1,-0.4 1,-1 z" /><text
     x="0"
     y="79"
     fill="#000000"
     font-size="5px"
     font-weight="bold"
     font-family="'Helvetica Neue', Helvetica, Arial-Unicode, Arial, Sans-serif"
     id="text36"
     style="fill:#72f6b2;fill-opacity:1;">Created by Mangsaabguru</text>
<text
     x="4.4067798"
     y="86.033897"
     font-size="5px"
     font-weight="bold"
     id="text38"
     style="font-weight:bold;font-size:5px;font-family:'Helvetica Neue', Helvetica, Arial-Unicode, Arial, Sans-serif;fill:#72f6b2;fill-opacity:1;">from the Noun Project</text>
</svg>