<svg xmlns="http://www.w3.org/2000/svg" xmlns:xlink="http://www.w3.org/1999/xlink" version="1.1" x="0px" y="0px" viewBox="0 0 64 80" enable-background="new 0 0 64 64" xml:space="preserve"><g><path fill="#000000" d="M56.323,19.454l-0.64-0.028H8.31l-0.612,0.028c-2.768,0-4.145,1.405-4.145,4.131   c-0.028,1.627-0.028,3.283,0,4.882c0,2.782,1.307,4.117,4.117,4.145h0.042c0.209,1.196,0.473,2.504,0.793,4.006l-0.07-0.014   l0.167,0.779c0.515,2.142,1.057,4.284,1.627,6.412c0.501,1.892,1.057,4.033,1.558,6.134c0.584,2.559,1.864,3.547,4.548,3.547   h14.048l2.378-2.086c-0.765-1.711-1.196-3.505-1.307-5.271c-1.182-0.236-1.905-1.266-1.905-2.837c-0.028-4.59-0.028-9.166,0-13.756   c0-1.822,1.001-2.921,2.531-2.907c1.474,0.056,2.42,1.113,2.448,2.865c0.014,2.17,0,4.353,0,6.523   c0.918-1.196,2.045-2.267,3.366-3.171c0.459-0.32,0.932-0.598,1.419-0.862c0-0.807,0.014-1.627,0.014-2.448   c0-1.822,1.015-2.921,2.531-2.907c1.488,0.056,2.42,1.113,2.448,2.865v0.862c0.695-0.097,1.405-0.153,2.114-0.153   c3.561,0,6.996,1.266,9.667,3.533c0.07-0.376,0.139-0.751,0.209-1.113h0.028c2.81-0.028,4.145-1.363,4.145-4.145v-4.882   C60.467,20.83,59.104,19.454,56.323,19.454z M24.722,43.543c-0.028,1.725-1.141,2.712-2.643,2.643   c-1.433-0.083-2.267-1.113-2.295-2.837c-0.014-2.323,0-4.632,0-6.954c0-2.309-0.014-4.632,0-6.94c0.028-1.725,0.89-2.74,2.323-2.81   c1.447-0.097,2.587,0.918,2.615,2.643C24.792,34.03,24.792,38.786,24.722,43.543z"/><path fill="#000000" d="M45.299,15.682c-0.33-0.338-0.659-0.677-0.988-1.015c0.001-0.001,0.003-0.002,0.004-0.003   c-2.946-3.054-5.908-6.094-8.842-9.159c-0.269-0.282-0.464-0.728-0.504-1.12c-0.038-0.374-0.141-0.725-0.293-1.045   c-0.002-0.005-0.004-0.011-0.006-0.017c-0.027-0.056-0.062-0.105-0.092-0.159c-0.491-0.907-1.403-1.509-2.492-1.52   c-0.017-0.001-0.033-0.005-0.05-0.005c-0.002,0-0.003,0-0.005,0s-0.004,0-0.005,0c-0.017,0-0.033,0.005-0.05,0.005   c-1.09,0.011-2.001,0.613-2.492,1.52c-0.03,0.053-0.065,0.102-0.092,0.158c-0.002,0.005-0.004,0.011-0.006,0.017   c-0.152,0.32-0.255,0.671-0.293,1.045c-0.04,0.392-0.235,0.838-0.504,1.12c-2.934,3.065-5.895,6.105-8.842,9.159   c0.001,0.001,0.003,0.002,0.004,0.003c-0.33,0.338-0.659,0.677-0.988,1.015c-0.728,0.749-0.756,1.666-0.112,2.271   c0.608,0.572,1.492,0.474,2.206-0.256c3.133-3.207,6.266-6.416,9.392-9.631c0.207-0.212,0.404-0.43,0.632-0.576   c0.168-0.057,0.363-0.086,0.535-0.108c0.198-0.026,1.036-0.026,1.234,0c0.172,0.022,0.366,0.051,0.535,0.108   c0.228,0.145,0.424,0.363,0.631,0.575c3.126,3.215,6.259,6.424,9.392,9.631c0.713,0.73,1.598,0.828,2.206,0.256   C46.055,17.347,46.028,16.431,45.299,15.682z"/><path fill="#000000" d="M39.076,34.553c5.277-3.621,12.463-2.847,16.769,1.813c4.402,4.763,4.628,11.923,0.589,16.957   c-3.995,4.978-11.98,6.717-18.144,1.944c-0.097,0.114-0.195,0.263-0.324,0.377c-2.298,2.029-4.597,4.056-6.901,6.077   c-1.035,0.908-2.443,0.842-3.307-0.141c-0.856-0.975-0.724-2.379,0.314-3.296c1.154-1.019,2.31-2.036,3.468-3.052   c1.265-1.111,2.533-2.22,3.813-3.341C31.654,45.548,33.811,38.166,39.076,34.553z M46.122,55.209   c5.165,0.153,9.921-3.759,10.296-9.362c0.378-5.651-3.893-10.368-9.58-10.687c-5.384-0.302-10.124,3.976-10.436,9.417   C36.022,50.042,40.343,55.037,46.122,55.209z"/></g><text x="0" y="79" fill="#000000" font-size="5px" font-weight="bold" font-family="'Helvetica Neue', Helvetica, Arial-Unicode, Arial, Sans-serif">Created by Delwar Hossain</text><text x="0" y="84" fill="#000000" font-size="5px" font-weight="bold" font-family="'Helvetica Neue', Helvetica, Arial-Unicode, Arial, Sans-serif">from the Noun Project</text></svg>