<svg xmlns="http://www.w3.org/2000/svg" xmlns:xlink="http://www.w3.org/1999/xlink" version="1.1" x="0px" y="0px" viewBox="0 0 64 80" enable-background="new 0 0 64 64" xml:space="preserve"><g><path fill="#000000" d="M21.4,17.4c-0.4-0.4-1-0.4-1.4,0l-3.9,3.9l-1-1c-0.4-0.4-1-0.4-1.4,0s-0.4,1,0,1.4l1.7,1.7   c0.2,0.2,0.5,0.3,0.7,0.3c0.3,0,0.5-0.1,0.7-0.3l4.6-4.6C21.8,18.4,21.8,17.7,21.4,17.4z"/><path fill="#000000" d="M20,26.4l-3.9,3.9l-1-1c-0.4-0.4-1-0.4-1.4,0s-0.4,1,0,1.4l1.7,1.7c0.2,0.2,0.5,0.3,0.7,0.3   c0.3,0,0.5-0.1,0.7-0.3l4.6-4.6c0.4-0.4,0.4-1,0-1.4S20.3,26,20,26.4z"/><path fill="#000000" d="M39,34c-0.6,0-1,0.4-1,1s0.4,1,1,1h2c0.6,0,1-0.4,1-1s-0.4-1-1-1H39z"/><path fill="#000000" d="M45,34c-0.6,0-1,0.4-1,1s0.4,1,1,1h6v14.3l-8.7,3.5l-10-11l-6.6,3.3c-1.1,0.5-2.3,0.6-3.4,0.2L21,45.9   c-0.2-0.1-0.3-0.3-0.3-0.4c0-0.1,0-0.3,0.2-0.4l8.5-6.2c0.1,0,0.3-0.1,0.4-0.2c0,0,0-0.1,0.1-0.1l3.6-2.6H35c0.6,0,1-0.4,1-1   s-0.4-1-1-1h-2.3l-3.6,2.6L26.4,34H14h-1H0v18h6c0.6,0,1-0.4,1-1s-0.4-1-1-1H2V36h10v14h-2c-0.6,0-1,0.4-1,1s0.4,1,1,1h2.7   l13.7,10.8c0.7,0.6,1.5,0.9,2.4,0.9c0.5,0,1-0.1,1.4-0.3c0.4-0.2,0.7-0.5,1-0.7l1.1,1.1c0.1,0.1,0.1,0.1,0.2,0.1   c0,0,0.1,0.1,0.1,0.1C32.7,64,32.9,64,33,64c0.1,0,0.2,0,0.4-0.1c0,0,0.1,0,0.1-0.1c0.1,0,0.1-0.1,0.2-0.1l8.9-7.9l9.7-3.9H64V34   H45z M29.3,61.5c-0.5,0.2-1.2,0.1-1.7-0.3L14,50.5V36h11.6l1.8,1.8l-7.7,5.7c-0.7,0.5-1.1,1.5-1,2.4c0.1,0.9,0.8,1.7,1.7,2l1.2,0.4   c1.6,0.5,3.4,0.4,5-0.4l5.3-2.6l8.8,9.7L39.4,56l-8.7-8.7c-0.4-0.4-1-0.4-1.4,0s-0.4,1,0,1.4l8.6,8.6l-1.7,1.5l-8.5-8.5   c-0.4-0.4-1-0.4-1.4,0s-0.4,1,0,1.4l8.4,8.4L33,61.6l-8.3-8.3c-0.4-0.4-1-0.4-1.4,0s-0.4,1,0,1.4l6.5,6.5   C29.6,61.3,29.5,61.4,29.3,61.5z M62,50h-9V36h9V50z"/><path fill="#000000" d="M22,11c0-0.6-0.4-1-1-1h-1c-0.6,0-1,0.4-1,1s0.4,1,1,1h1C21.6,12,22,11.6,22,11z"/><path fill="#000000" d="M24,12h1c0.6,0,1-0.4,1-1s-0.4-1-1-1h-1c-0.6,0-1,0.4-1,1S23.4,12,24,12z"/><path fill="#000000" d="M16,12h1c0.6,0,1-0.4,1-1s-0.4-1-1-1h-1c-0.6,0-1,0.4-1,1S15.4,12,16,12z"/><path fill="#000000" d="M55,32c0.6,0,1-0.5,1-1V11c0-0.3-0.1-0.5-0.3-0.7l-10-10C45.5,0.1,45.3,0,45,0H9C8.4,0,8,0.5,8,1v31   c0,0.6,0.4,1,1,1s1-0.5,1-1V2h34v9c0,0.6,0.4,1,1,1h9v19C54,31.6,54.4,32,55,32z M46,3.5l6.5,6.5H46V3.5z"/><path fill="#000000" d="M30,7c0-0.6-0.4-1-1-1H16c-0.6,0-1,0.4-1,1s0.4,1,1,1h13C29.6,8,30,7.6,30,7z"/><path fill="#000000" d="M40,24c0.6,0,1-0.4,1-1s-0.4-1-1-1h-1c-0.6,0-1,0.4-1,1s0.4,1,1,1H40z"/><path fill="#000000" d="M44,24c0.6,0,1-0.4,1-1s-0.4-1-1-1h-1c-0.6,0-1,0.4-1,1s0.4,1,1,1H44z"/><path fill="#000000" d="M36,24c0.6,0,1-0.4,1-1s-0.4-1-1-1h-1c-0.6,0-1,0.4-1,1s0.4,1,1,1H36z"/><path fill="#000000" d="M48,18H27c-0.6,0-1,0.4-1,1s0.4,1,1,1h21c0.6,0,1-0.4,1-1S48.6,18,48,18z"/><path fill="#000000" d="M27,24h5c0.6,0,1-0.4,1-1s-0.4-1-1-1h-5c-0.6,0-1,0.4-1,1S26.4,24,27,24z"/><path fill="#000000" d="M49,29c0-0.6-0.4-1-1-1H27c-0.6,0-1,0.4-1,1s0.4,1,1,1h21C48.6,30,49,29.6,49,29z"/></g><text x="0" y="79" fill="#000000" font-size="5px" font-weight="bold" font-family="'Helvetica Neue', Helvetica, Arial-Unicode, Arial, Sans-serif">Created by Mangsaabguru</text><text x="0" y="84" fill="#000000" font-size="5px" font-weight="bold" font-family="'Helvetica Neue', Helvetica, Arial-Unicode, Arial, Sans-serif">from the Noun Project</text></svg>