<?xml version="1.0" encoding="UTF-8" standalone="no"?>
<svg
   xmlns:dc="http://purl.org/dc/elements/1.1/"
   xmlns:cc="http://creativecommons.org/ns#"
   xmlns:rdf="http://www.w3.org/1999/02/22-rdf-syntax-ns#"
   xmlns:svg="http://www.w3.org/2000/svg"
   xmlns="http://www.w3.org/2000/svg"
   xmlns:sodipodi="http://sodipodi.sourceforge.net/DTD/sodipodi-0.dtd"
   xmlns:inkscape="http://www.inkscape.org/namespaces/inkscape"
   x="0px"
   contentScriptType="text/ecmascript"
   y="0px"
   zoomAndPan="magnify"
   contentStyleType="text/css"
   viewBox="0 0 100 125"
   data-name="Layer 1"
   preserveAspectRatio="xMidYMid meet"
   version="1.0"
   id="svg2"
   inkscape:version="0.91 r13725"
   sodipodi:docname="noun_decision making_627815_green.svg">
  <metadata
     id="metadata42">
    <rdf:RDF>
      <cc:Work
         rdf:about="">
        <dc:format>image/svg+xml</dc:format>
        <dc:type
           rdf:resource="http://purl.org/dc/dcmitype/StillImage" />
      </cc:Work>
    </rdf:RDF>
  </metadata>
  <defs
     id="defs40" />
  <sodipodi:namedview
     pagecolor="#ffffff"
     bordercolor="#666666"
     borderopacity="1"
     objecttolerance="10"
     gridtolerance="10"
     guidetolerance="10"
     inkscape:pageopacity="0"
     inkscape:pageshadow="2"
     inkscape:window-width="1424"
     inkscape:window-height="733"
     id="namedview38"
     showgrid="false"
     inkscape:zoom="1.888"
     inkscape:cx="-20.444915"
     inkscape:cy="62.5"
     inkscape:window-x="0"
     inkscape:window-y="0"
     inkscape:window-maximized="0"
     inkscape:current-layer="svg2" />
  <title
     id="title4">Artboard 3</title>
  <path
     fill="#72f6b2"
     d="M 68.43 31.19 A 1.94 1.94 0.0 1 1 70.0 34.27 A 1.91 1.91 0.0 0 1 68.89 33.9 A 1.94 1.94 0.0          0 1 68.43 31.19 z"
     id="path6" />
  <path
     fill="#72f6b2"
     d="M 16.0 58.14 L 16.18 58.14 A 1.94 1.94 0.0 0 0 18.18 56.41 L 18.18 56.41 C 18.18 56.41 18.18          56.41 18.18 56.41 A 1.94 1.94 0.0 0 0 14.31 56.0 L 14.31 56.0 L 14.31 56.0 A 1.94 1.94 0.0 0 0 16.0 58.14 z"
     id="path8" />
  <path
     fill="#72f6b2"
     d="M 49.94 95.66 L 49.94 95.66 A 1.94 1.94 0.0 1 0 48.0 93.72 A 1.93 1.93 0.0 0 0 50.0 95.66 z"
     id="path10" />
  <path
     fill="#72f6b2"
     d="M 19.64 44.41 A 2.0 2.0 0.0 0 0 20.58 44.67 A 1.94 1.94 0.0 1 0 19.64 44.41 z"
     id="path12" />
  <path
     fill="#72f6b2"
     d="M 37.93 91.58 A 1.94 1.94 0.0 1 0 35.37 92.58 A 1.88 1.88 0.0 0 0 36.12 92.75 A 1.94 1.94          0.0 0 0 37.93 91.58 z"
     id="path14" />
  <path
     fill="#72f6b2"
     d="M 83.73 58.2 L 84.0 58.2 A 1.91 1.91 0.0 1 0 83.76 58.2 z"
     id="path16" />
  <path
     fill="#72f6b2"
     d="M 79.39 44.78 A 1.9 1.9 0.0 0 0 80.39 44.52 A 1.93 1.93 0.0 1 0 79.39 44.78 z"
     id="path18" />
  <path
     fill="#72f6b2"
     d="M 64.57 92.57 A 1.93 1.93 0.0 0 0 63.0 89.0 L 63.0 89.0 A 1.94 1.94 0.0 1 0 64.58 92.54 z"
     id="path20" />
  <path
     fill="#72f6b2"
     d="M 30.06 34.21 A 1.94 1.94 0.0 1 0 28.52 33.41 A 1.94 1.94 0.0 0 0 30.06 34.21 z"
     id="path22" />
  <path
     fill="#72f6b2"
     d="M 33.32 60.91 A 16.68 16.68 0.0 1 1 50.0 77.59 A 16.7 16.7 0.0 0 1 33.32 60.9 z"
     id="path24" />
  <path
     d="M 41.47 61.47 L 44.59 64.61 L 47.83 67.87 L 51.09 64.630005 L 58.55 57.210007 L 55.3 54.0 L 47.84 61.42 L          44.72 58.28 z"
     id="path26" />
  <path
     d="M 63.63 29.16 A 2.7 2.7 0.0 0 0 62.63 27.07 A 44.11 44.11 0.0 0 0 54.63 21.95 A 0.25 0.25 0.0 0 1 54.49          21.730001 L 54.49 19.06 A 6.09 6.09 0.0 0 0 55.31 17.0 C 55.61 17.0 56.0 16.56 56.420002 15.08 C 56.99 13.08          56.420002 12.75 55.870003 12.8 A 5.34 5.34 0.0 0 0 56.090004 11.97 C 56.960003 6.7200003 54.380005 6.53          54.380005 6.53 A 4.0 4.0 0.0 0 0 52.81 5.0 A 5.25 5.25 0.0 0 0 49.61 4.32 A 4.65 4.65 0.0 0 0 48.34 4.56 L 48.34          4.56 A 5.62 5.62 0.0 0 0 46.94 5.2799997 A 7.51 7.51 0.0 0 0 45.5 6.47 A 5.82 5.82 0.0 0 0 43.94 9.21 A 5.94          5.94 0.0 0 0 43.94 11.88 L 43.94 11.88 A 5.33 5.33 0.0 0 0 44.16 12.71 C 43.64 12.71 43.03 12.96 43.61 14.99 C          44.03 16.47 44.420002 16.89 44.72 16.91 A 6.22 6.22 0.0 0 0 45.49 19.029999 L 45.49 21.669998 A 0.25 0.25 0.0 0          1 45.350002 21.889997 A 44.11 44.11 0.0 0 0 37.350002 27.009998 A 2.7 2.7 0.0 0 0 36.350002 29.099998 L          36.350002 33.0 L 63.63 33.0 z"
     id="path28" />
  <path
     d="M 88.32 80.0 A 0.25 0.25 0.0 0 1 88.18 79.78 L 88.18 77.06 A 6.09 6.09 0.0 0 0 89.0 75.0 C 89.3 75.0 89.69          74.56 90.11 73.08 C 90.68 71.08 90.11 70.75 89.56 70.8 A 5.34 5.34 0.0 0 0 89.78 69.97 C 90.65 64.72 88.07 64.53          88.07 64.53 A 4.0 4.0 0.0 0 0 86.46 63.0 A 5.25 5.25 0.0 0 0 83.26 62.32 A 4.65 4.65 0.0 0 0 81.990005 62.56 L          81.990005 62.56 A 5.62 5.62 0.0 0 0 80.590004 63.280003 A 7.51 7.51 0.0 0 0 79.15 64.47 A 5.82 5.82 0.0 0 0          77.590004 67.21 A 5.94 5.94 0.0 0 0 77.590004 69.88 L 77.590004 69.88 A 5.33 5.33 0.0 0 0 77.810005 70.71 C          77.29001 70.71 76.68001 70.96 77.26 72.99 C 77.68 74.47 78.07 74.89 78.37 74.909996 A 6.22 6.22 0.0 0 0 79.14          77.03 L 79.14 79.67 A 0.25 0.25 0.0 0 1 79.0 80.0 A 44.11 44.11 0.0 0 0 71.0 85.12 A 2.7 2.7 0.0 0 0 70.0 87.21          L 70.0 91.0 L 97.28 91.0 L 97.28 87.16 A 2.7 2.7 0.0 0 0 96.28 85.07001 A 44.11 44.11 0.0 0 0 88.32 80.0 z"
     id="path30" />
  <path
     d="M 30.0 87.16 A 2.7 2.7 0.0 0 0 29.0 85.07001 A 44.11 44.11 0.0 0 0 21.0 80.0 A 0.25 0.25 0.0 0 1 20.86          79.78 L 20.86 77.06 A 6.09 6.09 0.0 0 0 21.63 75.0 C 21.929998 75.0 22.32 74.56 22.74 73.08 C 23.31 71.08 22.74          70.75 22.19 70.8 A 5.34 5.34 0.0 0 0 22.41 69.97 C 23.28 64.72 20.7 64.53 20.7 64.53 A 4.0 4.0 0.0 0 0 19.14          63.0 A 5.25 5.25 0.0 0 0 15.94 62.32 A 4.65 4.65 0.0 0 0 14.67 62.56 L 14.67 62.56 A 5.62 5.62 0.0 0 0 13.27          63.280003 A 7.51 7.51 0.0 0 0 11.83 64.47 A 5.82 5.82 0.0 0 0 10.27 67.21 A 5.94 5.94 0.0 0 0 10.27 69.88 L          10.27 69.88 A 5.33 5.33 0.0 0 0 10.490001 70.71 C 9.970001 70.71 9.360001 70.96 9.940001 72.99 C 10.360001 74.47          10.750001 74.89 11.05 74.909996 A 6.22 6.22 0.0 0 0 11.82 77.03 L 11.82 79.67 A 0.25 0.25 0.0 0 1 11.679999          79.89 A 44.11 44.11 0.0 0 0 3.6799994 85.01 A 2.7 2.7 0.0 0 0 2.6799994 87.1 L 2.6799994 91.0 L 30.0 91.0 z"
     id="path32" />
  <text
     x="18.538136"
     font-size="5px"
     y="105.46609"
     font-weight="bold"
     id="text34"
     style="font-weight:bold;font-size:5px;font-family:'Helvetica Neue', Helvetica, Arial-Unicode, Arial, Sans-serif;fill:#72f6b2;fill-opacity:1;">Created by Gregor Cresnar</text>
  <text
     x="23.305084"
     font-size="5px"
     y="112.58475"
     font-weight="bold"
     id="text36"
     style="font-weight:bold;font-size:5px;font-family:'Helvetica Neue', Helvetica, Arial-Unicode, Arial, Sans-serif;fill:#72f6b2;fill-opacity:1;">from the Noun Project</text>
</svg>
