<svg xmlns="http://www.w3.org/2000/svg" data-name="Layer 1" viewBox="0 0 100 125" x="0px" y="0px"><title>Artboard 51</title><polygon points="45.83 31.65 44.29 32.92 48.92 38.55 55.94 28.6 56.79 27.45 54.3 27.45 48.8 35.26 45.83 31.65"/><path d="M76.58,68,52.19,57.36a5.37,5.37,0,0,0-7.27,2,5.37,5.37,0,0,0,2,7.33l5.15,3-9.13.63L34.29,55.36A5.32,5.32,0,0,0,31,52.87a6.12,6.12,0,0,0-1-.18,6.78,6.78,0,0,0-.78,0,1.15,1.15,0,0,0-.26,0,5,5,0,0,0-.67.15c-.11,0-.23,0-.35.08s-.34.15-.52.23l-.42.19a5.35,5.35,0,0,0-4.26.24,4.48,4.48,0,0,0-.56.32,5.38,5.38,0,0,0-1.5,7.43l.37.55a5.36,5.36,0,0,0-2,10L33.11,80a5.33,5.33,0,0,0,1.38,1.17c10.56,8,43.12,8.15,44.5,8.15h1V68.4l-.85-.13S78.13,68.12,76.58,68ZM47.88,65a3.33,3.33,0,0,1-1.56-2.05,3.3,3.3,0,0,1,.33-2.55,3.38,3.38,0,0,1,4.6-1.23l20.94,9.17L55.59,69.4Zm-27.83,5.2a3.36,3.36,0,0,1,1.7-6.27,3.58,3.58,0,0,1,.64.07l8.12,12.24ZM78,87.31c-5.63-.09-33.35-.85-42.33-7.77l-.12-.08a3.19,3.19,0,0,1-1-.85l-.12-.16,0,0h0l-9-13.59h0l-3-4.56a3.38,3.38,0,0,1,.94-4.67,3.56,3.56,0,0,1,.65-.32l.13-.06a3.87,3.87,0,0,1,.59-.13l.28,0h.28a5.26,5.26,0,0,0-.74,1.59A5.35,5.35,0,0,0,25,60.73l9.85,17.06,1.73-1L26.73,59.73a3.39,3.39,0,0,1,.67-4.19l.43-.31.13-.1a3.39,3.39,0,0,1,4.6,1.23l8.92,15.46h0l.31.54.62,0c3.42-.22,8.3-.55,13-.9h.07L76.33,70c.67,0,1.24.09,1.66.14Z"/><path d="M76,13a4,4,0,0,0-3.86,3H67.82l-7.26,7.25a31.17,31.17,0,0,1-10.35-6.08l-.67-.61-.67.61A31.12,31.12,0,0,1,39,23.06L32,16H27.64a4,4,0,1,0,0,2h3.5l5.74,5.75-.69.17v.78a37.94,37.94,0,0,0,.65,7.17h-8.2a4,4,0,1,0,0,2h8.65a27,27,0,0,0,1.85,5.07l-7.28,7.27H28.64a4,4,0,1,0,0,2h4l7.44-7.43A19.47,19.47,0,0,0,49.19,49l.35.13.34-.13a19.68,19.68,0,0,0,9.32-8.71l7.89,7.89h4a4,4,0,1,0,0-2H67.92l-7.76-7.75a28.25,28.25,0,0,0,1.63-4.59h9.35a4,4,0,1,0,0-2H62.23a37.94,37.94,0,0,0,.65-7.17v-.79l-.12,0L68.65,18h3.49A4,4,0,1,0,76,13ZM23.78,19a2,2,0,1,1,2-2h0A2,2,0,0,1,23.78,19Zm1,15.87a2,2,0,1,1,2-2A2,2,0,0,1,24.78,34.87Zm0,14.34a2,2,0,1,1,2-2h0A2,2,0,0,1,24.78,49.21Zm50.22-4a2,2,0,1,1-2,2A2,2,0,0,1,75,45.21Zm0-14.34a2,2,0,1,1-2,2A2,2,0,0,1,75,30.87ZM49.54,47c-1.95-.88-11.06-5.83-11.34-21.55l.3-.09.14.13.27-.26a33.25,33.25,0,0,0,10.63-6,32.81,32.81,0,0,0,11.34,6.22C60.59,41.19,51.48,46.13,49.54,47ZM76,19a2,2,0,1,1,2-2A2,2,0,0,1,76,19Z"/><text x="0" y="115" fill="#000000" font-size="5px" font-weight="bold" font-family="'Helvetica Neue', Helvetica, Arial-Unicode, Arial, Sans-serif">Created by James Fok</text><text x="0" y="120" fill="#000000" font-size="5px" font-weight="bold" font-family="'Helvetica Neue', Helvetica, Arial-Unicode, Arial, Sans-serif">from the Noun Project</text></svg>