<svg xmlns="http://www.w3.org/2000/svg" xmlns:xlink="http://www.w3.org/1999/xlink" version="1.1" x="0px" y="0px" viewBox="0 0 100 125" enable-background="new 0 0 100 100" xml:space="preserve"><g><g><g><path fill="#000000" d="M51.711,86.997c-19.614,0-35.571-15.958-35.571-35.572s15.957-35.572,35.571-35.572     s35.572,15.958,35.572,35.572S71.325,86.997,51.711,86.997z M51.711,17.854c-18.511,0-33.571,15.06-33.571,33.572     S33.2,84.997,51.711,84.997c18.512,0,33.572-15.06,33.572-33.572S70.223,17.854,51.711,17.854z"/></g></g><g><g><path fill="#000000" d="M51.711,76.359c-6.326,0-12.583-2.497-17.167-6.852c-2.267-2.153-4.085-4.669-5.406-7.479     c-0.14-0.297-0.29-0.599-0.441-0.902c-0.567-1.139-1.153-2.317-1.391-3.593c-0.997-5.362-1.095-9.884-0.302-13.824     c0.973-4.829,4.259-9.271,9.253-12.508c3.767-2.442,8.084-3.991,12.485-4.478c6.887-0.756,14.236,1.7,19.594,6.542     c2.744,2.479,4.885,5.398,6.194,8.44c1.29,2.998,1.976,6.384,1.984,9.79c0.009,4.526-1.129,8.864-3.292,12.544     C68.556,71.984,60.916,76.359,51.711,76.359z M51.309,28.583c-0.784,0-1.573,0.043-2.346,0.129     c-4.093,0.453-8.11,1.894-11.617,4.167c-4.539,2.943-7.515,6.929-8.38,11.225c-0.743,3.685-0.642,7.958,0.307,13.064     c0.186,1,0.709,2.051,1.215,3.067c0.158,0.318,0.314,0.632,0.461,0.943c1.214,2.584,2.887,4.898,4.972,6.879     c4.217,4.005,9.972,6.302,15.791,6.302c8.589,0,15.432-3.919,19.788-11.333c1.982-3.373,3.025-7.358,3.016-11.527     c-0.007-3.138-0.637-6.252-1.821-9.004c-1.196-2.78-3.166-5.458-5.698-7.746C62.659,30.83,56.941,28.583,51.309,28.583z"/></g></g><g><g><path fill="#000000" d="M52.175,66.706c-0.766,0-1.541-0.062-2.305-0.185c-5.642-0.903-10.355-5.004-12.3-10.703     c-1.819-5.331-0.697-10.862,3.001-14.797c2.966-3.155,7.135-4.965,11.437-4.965c1.02,0,2.039,0.104,3.029,0.31     c6.77,1.404,12.073,8.019,12.073,15.06C67.11,59.851,60.411,66.706,52.175,66.706z M52.009,38.056c-3.752,0-7.39,1.58-9.98,4.335     c-3.182,3.385-4.141,8.163-2.565,12.781c1.679,4.921,5.888,8.601,10.723,9.375c0.659,0.105,1.328,0.159,1.988,0.159     c7.011,0,12.935-6.082,12.935-13.281c0-6.026-4.701-11.903-10.479-13.102C53.775,38.146,52.893,38.056,52.009,38.056z"/></g></g></g><g><g><path fill="#000000" d="M51.711,88.068c-0.552,0-1-0.448-1-1V16.861c0-0.552,0.448-1,1-1s1,0.448,1,1v70.207    C52.711,87.621,52.263,88.068,51.711,88.068z"/></g></g><g><g><path fill="#000000" d="M86.283,52.425H17.17c-0.552,0-1-0.448-1-1s0.448-1,1-1h69.112c0.552,0,1,0.448,1,1    S86.835,52.425,86.283,52.425z"/></g></g><g><g><circle fill="#000000" cx="30.867" cy="37.677" r="3.09"/></g></g><g><g><circle fill="#000000" cx="65.683" cy="34.899" r="4.301"/></g></g><g><g><circle fill="#000000" cx="76.336" cy="65.824" r="1.615"/></g></g><g><g><path fill="#000000" stroke="#231F20" stroke-width="2" stroke-linecap="round" stroke-linejoin="round" stroke-miterlimit="10" d="    M51.913,50.668"/></g></g><text x="0" y="115" fill="#000000" font-size="5px" font-weight="bold" font-family="'Helvetica Neue', Helvetica, Arial-Unicode, Arial, Sans-serif">Created by Michael Rojas</text><text x="0" y="120" fill="#000000" font-size="5px" font-weight="bold" font-family="'Helvetica Neue', Helvetica, Arial-Unicode, Arial, Sans-serif">from the Noun Project</text></svg>