<svg xmlns="http://www.w3.org/2000/svg" data-name="Layer 1" viewBox="0 0 100 125" x="0px" y="0px"><title>Artboard 3</title><path d="M68.43,31.19A1.94,1.94,0,1,1,70,34.27a1.91,1.91,0,0,1-1.11-.37A1.94,1.94,0,0,1,68.43,31.19ZM16,58.14h.18a1.94,1.94,0,0,0,2-1.73v0s0,0,0,0A1.94,1.94,0,0,0,14.31,56h0v0a.05.05,0,0,0,0,0A1.94,1.94,0,0,0,16,58.14ZM49.94,95.66h0A1.94,1.94,0,1,0,48,93.72,1.93,1.93,0,0,0,50,95.66ZM19.64,44.41a2,2,0,0,0,.94.26,1.94,1.94,0,1,0-.94-.26ZM37.93,91.58a1.94,1.94,0,1,0-2.56,1,1.88,1.88,0,0,0,.75.17A1.94,1.94,0,0,0,37.93,91.58ZM83.73,58.2H84a1.91,1.91,0,1,0-.24,0ZM79.39,44.78a1.9,1.9,0,0,0,1-.26,1.93,1.93,0,1,0-1,.26ZM64.57,92.57A1.93,1.93,0,0,0,63,89h0a1.94,1.94,0,1,0,1.58,3.54ZM30.06,34.21a1.94,1.94,0,1,0-1.54-.8A1.94,1.94,0,0,0,30.06,34.21Zm3.26,26.7A16.68,16.68,0,1,1,50,77.59,16.7,16.7,0,0,1,33.32,60.9Zm8.15.56,3.12,3.14,3.24,3.26,3.26-3.24,7.46-7.42L55.3,54l-7.46,7.42-3.12-3.14ZM63.63,29.16a2.7,2.7,0,0,0-1-2.09,44.11,44.11,0,0,0-8-5.12.25.25,0,0,1-.14-.22V19.06A6.09,6.09,0,0,0,55.31,17c.3,0,.69-.44,1.11-1.92.57-2,0-2.33-.55-2.28a5.34,5.34,0,0,0,.22-.83c.87-5.25-1.71-5.44-1.71-5.44A4,4,0,0,0,52.81,5a5.25,5.25,0,0,0-3.2-.68,4.65,4.65,0,0,0-1.27.24h0a5.62,5.62,0,0,0-1.4.72,7.51,7.51,0,0,0-1.44,1.19,5.82,5.82,0,0,0-1.56,2.74,5.94,5.94,0,0,0,0,2.67h0a5.33,5.33,0,0,0,.22.83c-.52,0-1.13.25-.55,2.28.42,1.48.81,1.9,1.11,1.92a6.22,6.22,0,0,0,.77,2.12v2.64a.25.25,0,0,1-.14.22,44.11,44.11,0,0,0-8,5.12,2.7,2.7,0,0,0-1,2.09V33H63.63ZM88.32,80a.25.25,0,0,1-.14-.22V77.06A6.09,6.09,0,0,0,89,75c.3,0,.69-.44,1.11-1.92.57-2,0-2.33-.55-2.28a5.34,5.34,0,0,0,.22-.83c.87-5.25-1.71-5.44-1.71-5.44A4,4,0,0,0,86.46,63a5.25,5.25,0,0,0-3.2-.68,4.65,4.65,0,0,0-1.27.24h0a5.62,5.62,0,0,0-1.4.72,7.51,7.51,0,0,0-1.44,1.19,5.82,5.82,0,0,0-1.56,2.74,5.94,5.94,0,0,0,0,2.67h0a5.33,5.33,0,0,0,.22.83c-.52,0-1.13.25-.55,2.28.42,1.48.81,1.9,1.11,1.92a6.22,6.22,0,0,0,.77,2.12v2.64A.25.25,0,0,1,79,80a44.11,44.11,0,0,0-8,5.12,2.7,2.7,0,0,0-1,2.09V91H97.28V87.16a2.7,2.7,0,0,0-1-2.09A44.11,44.11,0,0,0,88.32,80ZM30,87.16a2.7,2.7,0,0,0-1-2.09A44.11,44.11,0,0,0,21,80a.25.25,0,0,1-.14-.22V77.06A6.09,6.09,0,0,0,21.63,75c.3,0,.69-.44,1.11-1.92.57-2,0-2.33-.55-2.28a5.34,5.34,0,0,0,.22-.83c.87-5.25-1.71-5.44-1.71-5.44A4,4,0,0,0,19.14,63a5.25,5.25,0,0,0-3.2-.68,4.65,4.65,0,0,0-1.27.24h0a5.62,5.62,0,0,0-1.4.72,7.51,7.51,0,0,0-1.44,1.19,5.82,5.82,0,0,0-1.56,2.74,5.94,5.94,0,0,0,0,2.67h0a5.33,5.33,0,0,0,.22.83c-.52,0-1.13.25-.55,2.28.42,1.48.81,1.9,1.11,1.92a6.22,6.22,0,0,0,.77,2.12v2.64a.25.25,0,0,1-.14.22,44.11,44.11,0,0,0-8,5.12,2.7,2.7,0,0,0-1,2.09V91H30Z"/><text x="0" y="115" fill="#000000" font-size="5px" font-weight="bold" font-family="'Helvetica Neue', Helvetica, Arial-Unicode, Arial, Sans-serif">Created by Gregor Cresnar</text><text x="0" y="120" fill="#000000" font-size="5px" font-weight="bold" font-family="'Helvetica Neue', Helvetica, Arial-Unicode, Arial, Sans-serif">from the Noun Project</text></svg>