<svg xmlns="http://www.w3.org/2000/svg" id="Laag_1" data-name="Laag 1" width="300" height="65" viewBox="0 0 123.21 26.79"><defs><style>.cls-1{fill:#005891;}</style></defs><title>Logo X-omics</title><path class="cls-1" d="M7.51,14.25l-7.1-11h6l4.51,7.55,4.22-7.55h5.53l-7,11,7.91,12.14h-6l-5.29-8.58-5,8.58H0Z" transform="translate(0 0.15)"/><path class="cls-1" d="M21.61,14h8.62v3.81H21.61Z" transform="translate(0 0.15)"/><path class="cls-1" d="M33.6,17.28c0-4.88,2.81-9.4,8.81-9.4s8.73,4.11,8.73,9.4c0,4.85-2.81,9.36-8.77,9.36S33.6,22.54,33.6,17.28Zm12.43,0c0-3.29-.93-5.74-3.66-5.74S38.74,14,38.74,17.28,39.67,23,42.4,23,46,20.58,46,17.28Z" transform="translate(0 0.15)"/><path class="cls-1" d="M54.58,8.18h4.85V9.66a8.12,8.12,0,0,1,5.24-1.77A5.08,5.08,0,0,1,69,10a8.38,8.38,0,0,1,5.44-2.07c4.26,0,6,2.7,6,6.4V26.35h-5V15c0-2.07-.63-3.26-2.74-3.26a6.4,6.4,0,0,0-3,1,9.71,9.71,0,0,1,.18,1.78v11.8h-5V15c0-2.29-.93-3.18-2.63-3.18a5.38,5.38,0,0,0-2.85,1.15V26.35h-5Z" transform="translate(0 0.15)"/><path class="cls-1" d="M84.73,2.85a3,3,0,1,1,3,3A3,3,0,0,1,84.73,2.85Zm.48,5.33h5V26.35h-5Z" transform="translate(0 0.15)"/><path class="cls-1" d="M93.95,17.54c0-5.44,3-9.66,9-9.66a12.24,12.24,0,0,1,4.51.78v3.85a9.47,9.47,0,0,0-4-.85c-2.92,0-4.37,2-4.37,5.88,0,3.48,1.67,5.29,4.51,5.29a7.43,7.43,0,0,0,4.18-1v3.92a11.58,11.58,0,0,1-4.66.89C97,26.65,93.95,23.17,93.95,17.54Z" transform="translate(0 0.15)"/><path class="cls-1" d="M110.34,25.61V22A14.8,14.8,0,0,0,115.52,23c2.07,0,3-.63,3-1.89s-1.63-1.59-4-2.37-4.26-2.29-4.26-5.36c0-3.85,2.85-5.51,7-5.51a14.83,14.83,0,0,1,4.7.74v3.72a12.77,12.77,0,0,0-4.44-.85c-1.89,0-2.63.55-2.63,1.55s.81,1.44,3.18,2.15c2.55.74,5.14,2,5.14,5.66s-2.81,5.77-7,5.77A14.52,14.52,0,0,1,110.34,25.61Z" transform="translate(0 0.15)"/></svg>